<?xml version="1.0" encoding="UTF-8"?>
<svg id="Layer_2" data-name="Layer 2" xmlns="http://www.w3.org/2000/svg" viewBox="0 0 1072.34 449.06">
  <defs>
    <style>
      .cls-1, .cls-2 {
        stroke: #b3b3b3;
        stroke-miterlimit: 10;
      }

      .cls-1, .cls-3 {
        fill: #999;
      }

      .cls-2 {
        fill: #f0e4ff;
      }

      .cls-4 {
        fill: #b3b3b3;
      }
    </style>
  </defs>
  <g id="Layer_1-2" data-name="Layer 1">
    <g>
      <path class="cls-2" d="M660.26,224.56c-2,10.2-8.2,14.8-19.4,14.8-9,0-17.8-1.8-20.2-14.8l-11.8-63.2-11.4,63.2c-2.4,13-11.2,14.8-20.2,14.8-11.2,0-17.4-4.6-19.4-14.8l-22.6-108.2c-2.8-13.8,4.8-18.6,17.6-18.6,10.2,0,16.4,3.2,18.4,14.6l9,52.2,12.4-55.2c1.6-7.6,7.4-11.2,16.2-11.2,7.4,0,14.2,2.2,16,11.2l11.4,55.2,9.2-52.2c1.8-10.4,7.4-14.6,17.6-14.6,12.8,0,22,5.8,19.4,18.6l-22.2,108.2Z"/>
      <path class="cls-2" d="M728.06,97.76c11.2,0,21.8,4.6,24.8,17l24.6,104.2c4,16.8-7.8,20.4-18.4,20.4-22.6,0-16.6-22.6-24.2-22.6h-12.4c-7.6,0-1.6,22.6-24.2,22.6-10.6,0-22.2-3.6-18.4-20.4l23.6-104.2c2.8-12.4,13.4-17,24.6-17ZM728.66,147.36l-5.4,38.6c-.2,1.6-.6,3.8,1.6,3.8h7.2c2,0,1.8-2.2,1.6-3.8l-5-38.6Z"/>
      <path class="cls-2" d="M821.26,168.56c0,13.4,4.6,32.6,21.4,32.6,11.6,0,22.4,2.8,22.4,19,0,14.6-11.4,19.2-25.8,19.2-38.4,0-58-34.8-58-70.8s19.6-70.8,58-70.8c14.4,0,25.8,4.6,25.8,19.2,0,16.2-10.8,19-22.4,19-16.8,0-21.4,19.2-21.4,32.6Z"/>
      <path class="cls-2" d="M876.06,114.56c0-11.2,10-16.8,19.8-16.8s19.6,5.6,19.6,16.8v37.6l15.6-39.4c4-10.4,9.6-15,21-15,9.6,0,18,4,18,12.6,0,2.2-.4,4.4-1.6,7.2l-18.2,43c-.6,1.4-.8,3-.8,4,0,1.4.6,3,1.6,5.4l18.4,47.8c.8,2,1.4,4.2,1.4,6.4,0,10-6.6,15.2-18.4,15.2-10.2,0-17.8-3.2-21-12.4l-16-46.6v42.2c0,11.2-10,16.8-19.8,16.8s-19.6-5.6-19.6-16.8v-108Z"/>
      <path class="cls-2" d="M1048.25,176.16c-1.6,3.8-2.6,7-2.6,14.4v32c0,11.2-9.8,16.8-19.6,16.8s-19.8-5.6-19.8-16.8v-32c0-7.4-1.2-10.6-2.8-14.4l-21.2-52c-6.8-16.6-3.4-26.4,13.8-26.4,8,0,17,3.2,20,13l9.6,31.4,9.2-31.4c2.8-9.8,12-13,20-13,17.2,0,20.4,9.8,13.8,26.4l-20.4,52Z"/>
      <path class="cls-2" d="M671.66,374.56c-2,10.2-8.2,14.8-19.4,14.8-9,0-17.8-1.8-20.2-14.8l-11.8-63.2-11.4,63.2c-2.4,13-11.2,14.8-20.2,14.8-11.2,0-17.4-4.6-19.4-14.8l-22.6-108.2c-2.8-13.8,4.8-18.6,17.6-18.6,10.2,0,16.4,3.2,18.4,14.6l9,52.2,12.4-55.2c1.6-7.6,7.4-11.2,16.2-11.2,7.4,0,14.2,2.2,16,11.2l11.4,55.2,9.2-52.2c1.8-10.4,7.4-14.6,17.6-14.6,12.8,0,22,5.8,19.4,18.6l-22.2,108.2Z"/>
      <path class="cls-2" d="M739.46,247.76c11.2,0,21.8,4.6,24.8,17l24.6,104.2c4,16.8-7.8,20.4-18.4,20.4-22.6,0-16.6-22.6-24.2-22.6h-12.4c-7.6,0-1.6,22.6-24.2,22.6-10.6,0-22.2-3.6-18.4-20.4l23.6-104.2c2.8-12.4,13.4-17,24.6-17ZM740.06,297.36l-5.4,38.6c-.2,1.6-.6,3.8,1.6,3.8h7.2c2,0,1.8-2.2,1.6-3.8l-5-38.6Z"/>
      <path class="cls-2" d="M797.66,359.76c0-9.8,5.4-17.4,15.6-17.4s13.6,9.4,19.4,9.4c4.4,0,8-2.2,8-7,0-3.8-4-7.8-6.8-9.8l-18-14c-11-8.4-16.8-21-16.8-34,0-23.2,19-39.2,41.6-39.2,16.8,0,34.6,6,34.6,25.4,0,7-5,13.2-12.4,13.2-6.2,0-10.4-4.2-15.6-4.2-4.4,0-6.6,3.2-6.6,7,0,2.2,1.6,5.4,3.8,7l22.8,16.8c10.6,7.8,15,19.4,15,31.2,0,27-19.4,45.2-45.8,45.2-17.8,0-38.8-10.2-38.8-29.6Z"/>
      <path class="cls-2" d="M950.46,284.76c-2.4,0-2.6,1.4-2.6,3v84.8c0,11.2-10,16.8-19.8,16.8s-19.6-5.6-19.6-16.8v-84.8c0-1.6-.2-3-2.6-3h-5.2c-11,0-16.4-9-16.4-18s5.4-18.2,16.4-18.2h55c11,0,16.4,9.2,16.4,18.2s-5.4,18-16.4,18h-5.2Z"/>
      <path class="cls-2" d="M1002.45,388.56c-15,0-20.4-10.2-20.4-24.2v-91.6c0-14,5.4-24.2,20.4-24.2h38.8c10.2,0,16.2,6.8,16.2,18,0,8.2-5,17.6-16.2,17.6h-11.8c-4.8,0-8,3.2-8,8.6s3.2,8.6,8,8.6h11c9.6,0,14.4,7.8,14.4,17.2,0,8.6-4.8,17.2-14.4,17.2h-11c-4.8,0-8,3.2-8,8.6s3.2,8.6,8,8.6h11.8c10.2,0,16.2,6.8,16.2,18,0,8.2-5,17.6-16.2,17.6h-38.8Z"/>
    </g>
    <g>
      <path class="cls-4" d="M297.48,394.81l-185.45,4.36c-6.62.16-12.38-4.5-13.61-11-6.42-33.97-21.45-124.2-22.71-135.56l-20.22-146.3c-.1-.73-.16-1.46-.13-2.2.58-14.56,12.56-26.18,27.27-26.18h268.18c14.63,0,20.56,9.05,20.9,23.36.02.88-.06,1.75-.22,2.61l-20.21,111.17c-4.83,24.92-30.13,137.82-41.3,170.6-1.83,5.36-6.82,9-12.48,9.13Z"/>
      <path class="cls-4" d="M235.64,394.81c-2.83,0-97.83.21-98.97-2.38-7.47-17.01-24.42-75.09-27.45-90.8-3.21-16.98-20.63-117.71-21.46-123.36-.06-.43-10.23-74.02-10.22-74.46.15-7.52,3.06-12.41,10.38-12.78.29-7.28,140.37-13.09,147.72-13.09,7.35,0,147.43,5.81,147.72,13.09,7.33.37,10.24,5.26,10.38,12.78,0,.44-10.16,74.02-10.22,74.46-.83,5.65-18.25,106.38-21.46,123.36-3.03,15.71-19.98,73.79-27.45,90.8-1.14,2.59-96.13,2.38-98.97,2.38Z"/>
      <path class="cls-4" d="M173.8,394.81l185.45,4.36c6.62.16,12.38-4.5,13.61-11,6.42-33.97,21.45-124.2,22.71-135.56l20.22-146.3c.1-.73.16-1.46.13-2.2-.58-14.56-12.56-26.18-27.27-26.18H120.48c-14.63,0-20.56,9.05-20.9,23.36-.02.88.06,1.75.22,2.61l20.21,111.17c4.83,24.92,30.13,137.82,41.3,170.6,1.83,5.36,6.82,9,12.48,9.13Z"/>
    </g>
    <path class="cls-3" d="M447.6,83.59c42.88,21.19,36.49,22.76-8.78,27.41-43.97,3.57-123.1,5.36-200.62,5.36-77.51,0-156.6-1.79-200.54-5.36-45.25-4.65-51.63-6.22-8.73-27.42,37.52-18.21,84.51-39.68,119.71-56.39C185.13,10.41,211.69-.19,238.24,0c26.56-.19,53.14,10.41,89.64,27.19,35.22,16.71,82.2,38.19,119.72,56.39Z"/>
    <rect class="cls-1" x="218.26" y="156.56" width="40" height="164"/>
    <rect class="cls-1" x="305.76" y="156.56" width="40" height="164"/>
    <rect class="cls-1" x="125.76" y="156.56" width="40" height="164"/>
  </g>
</svg>