<?xml version="1.0" encoding="UTF-8"?>
<svg id="Layer_2" data-name="Layer 2" xmlns="http://www.w3.org/2000/svg" viewBox="0 0 1560.61 435.48">
  <defs>
    <style>
      .cls-1, .cls-2 {
        stroke: #b3b3b3;
        stroke-miterlimit: 10;
      }

      .cls-1, .cls-3 {
        fill: #999;
      }

      .cls-2 {
        fill: #f0e4ff;
      }

      .cls-4 {
        fill: #b3b3b3;
      }
    </style>
  </defs>
  <g id="Layer_1-2" data-name="Layer 1">
    <g>
      <path class="cls-2" d="M554.12,315.86c-2,10.2-8.2,14.8-19.4,14.8-9,0-17.8-1.8-20.2-14.8l-11.8-63.2-11.4,63.2c-2.4,13-11.2,14.8-20.2,14.8-11.2,0-17.4-4.6-19.4-14.8l-22.6-108.2c-2.8-13.8,4.8-18.6,17.6-18.6,10.2,0,16.4,3.2,18.4,14.6l9,52.2,12.4-55.2c1.6-7.6,7.4-11.2,16.2-11.2,7.4,0,14.2,2.2,16,11.2l11.4,55.2,9.2-52.2c1.8-10.4,7.4-14.6,17.6-14.6,12.8,0,22,5.8,19.4,18.6l-22.2,108.2Z"/>
      <path class="cls-2" d="M621.92,189.06c11.2,0,21.8,4.6,24.8,17l24.6,104.2c4,16.8-7.8,20.4-18.4,20.4-22.6,0-16.6-22.6-24.2-22.6h-12.4c-7.6,0-1.6,22.6-24.2,22.6-10.6,0-22.2-3.6-18.4-20.4l23.6-104.2c2.8-12.4,13.4-17,24.6-17ZM622.52,238.66l-5.4,38.6c-.2,1.6-.6,3.8,1.6,3.8h7.2c2,0,1.8-2.2,1.6-3.8l-5-38.6Z"/>
      <path class="cls-2" d="M715.12,259.86c0,13.4,4.6,32.6,21.4,32.6,11.6,0,22.4,2.8,22.4,19,0,14.6-11.4,19.2-25.8,19.2-38.4,0-58-34.8-58-70.8s19.6-70.8,58-70.8c14.4,0,25.8,4.6,25.8,19.2,0,16.2-10.8,19-22.4,19-16.8,0-21.4,19.2-21.4,32.6Z"/>
      <path class="cls-2" d="M769.92,205.86c0-11.2,10-16.8,19.8-16.8s19.6,5.6,19.6,16.8v37.6l15.6-39.4c4-10.4,9.6-15,21-15,9.6,0,18,4,18,12.6,0,2.2-.4,4.4-1.6,7.2l-18.2,43c-.6,1.4-.8,3-.8,4,0,1.4.6,3,1.6,5.4l18.4,47.8c.8,2,1.4,4.2,1.4,6.4,0,10-6.6,15.2-18.4,15.2-10.2,0-17.8-3.2-21-12.4l-16-46.6v42.2c0,11.2-10,16.8-19.8,16.8s-19.6-5.6-19.6-16.8v-108Z"/>
      <path class="cls-2" d="M942.12,267.46c-1.6,3.8-2.6,7-2.6,14.4v32c0,11.2-9.8,16.8-19.6,16.8s-19.8-5.6-19.8-16.8v-32c0-7.4-1.2-10.6-2.8-14.4l-21.2-52c-6.8-16.6-3.4-26.4,13.8-26.4,8,0,17,3.2,20,13l9.6,31.4,9.2-31.4c2.8-9.8,12-13,20-13,17.2,0,20.4,9.8,13.8,26.4l-20.4,52Z"/>
      <path class="cls-2" d="M1174.32,315.86c-2,10.2-8.2,14.8-19.4,14.8-9,0-17.8-1.8-20.2-14.8l-11.8-63.2-11.4,63.2c-2.4,13-11.2,14.8-20.2,14.8-11.2,0-17.4-4.6-19.4-14.8l-22.6-108.2c-2.8-13.8,4.8-18.6,17.6-18.6,10.2,0,16.4,3.2,18.4,14.6l9,52.2,12.4-55.2c1.6-7.6,7.4-11.2,16.2-11.2,7.4,0,14.2,2.2,16,11.2l11.4,55.2,9.2-52.2c1.8-10.4,7.4-14.6,17.6-14.6,12.8,0,22,5.8,19.4,18.6l-22.2,108.2Z"/>
      <path class="cls-2" d="M1242.12,189.06c11.2,0,21.8,4.6,24.8,17l24.6,104.2c4,16.8-7.8,20.4-18.4,20.4-22.6,0-16.6-22.6-24.2-22.6h-12.4c-7.6,0-1.6,22.6-24.2,22.6-10.6,0-22.2-3.6-18.4-20.4l23.6-104.2c2.8-12.4,13.4-17,24.6-17ZM1242.72,238.66l-5.4,38.6c-.2,1.6-.6,3.8,1.6,3.8h7.2c2,0,1.8-2.2,1.6-3.8l-5-38.6Z"/>
      <path class="cls-2" d="M1300.32,301.06c0-9.8,5.4-17.4,15.6-17.4s13.6,9.4,19.4,9.4c4.4,0,8-2.2,8-7,0-3.8-4-7.8-6.8-9.8l-18-14c-11-8.4-16.8-21-16.8-34,0-23.2,19-39.2,41.6-39.2,16.8,0,34.6,6,34.6,25.4,0,7-5,13.2-12.4,13.2-6.2,0-10.4-4.2-15.6-4.2-4.4,0-6.6,3.2-6.6,7,0,2.2,1.6,5.4,3.8,7l22.8,16.8c10.6,7.8,15,19.4,15,31.2,0,27-19.4,45.2-45.8,45.2-17.8,0-38.8-10.2-38.8-29.6Z"/>
      <path class="cls-2" d="M1453.11,226.06c-2.4,0-2.6,1.4-2.6,3v84.8c0,11.2-10,16.8-19.8,16.8s-19.6-5.6-19.6-16.8v-84.8c0-1.6-.2-3-2.6-3h-5.2c-11,0-16.4-9-16.4-18s5.4-18.2,16.4-18.2h55c11,0,16.4,9.2,16.4,18.2s-5.4,18-16.4,18h-5.2Z"/>
      <path class="cls-2" d="M1505.11,329.86c-15,0-20.4-10.2-20.4-24.2v-91.6c0-14,5.4-24.2,20.4-24.2h38.8c10.2,0,16.2,6.8,16.2,18,0,8.2-5,17.6-16.2,17.6h-11.8c-4.8,0-8,3.2-8,8.6s3.2,8.6,8,8.6h11c9.6,0,14.4,7.8,14.4,17.2,0,8.6-4.8,17.2-14.4,17.2h-11c-4.8,0-8,3.2-8,8.6s3.2,8.6,8,8.6h11.8c10.2,0,16.2,6.8,16.2,18,0,8.2-5,17.6-16.2,17.6h-38.8Z"/>
    </g>
    <g>
      <path class="cls-4" d="M290.04,431.11l-185.45,4.36c-6.62.16-12.38-4.5-13.61-11-1.87-9.91-4.48-24.6-7.26-40.73-.4-2.3-.8-4.64-1.2-6.99-.95-2.9-1.44-5.78-1.57-8.66-.13-2.88.1-5.75.57-8.61,6.3-20.11,19.3-44.11-.85-61.14-1.61-2.07-3.25-4.12-4.84-6.19-4.74-6.22-8.98-12.65-9.94-20.52-.49-3.52-1.03-7.46-1.62-11.73-.44-7.53-2.44-15.53-3.25-23.5-.29-2.1-.58-4.22-.88-6.36-5.62-40.65-12.09-87.43-12.09-87.43-.1-.73-.16-1.46-.13-2.2.58-14.56,12.56-26.18,27.27-26.18h268.18c14.63,0,20.56,9.05,20.9,23.36.02.88-.06,1.75-.22,2.61l-3.16,17.37c-.63,3.47-1.33,7.33-2.46,11.34-2.3,5.73-5.45,10.34-9.02,14.65-1.79,2.15-3.68,4.23-5.63,6.33-19.95,15.47-6.95,40.47-4.95,60.47,0,5-2,10-3.4,15.09-.73,3.34-1.4,6.67-2.01,10-3.69,19.96-5.49,39.6-8.21,59.68-.39,2.37-.86,4.74-1.38,7.1-2.61,11.79-6.48,23.45-8.86,35.05-.95,3.79-1.89,7.47-2.81,11-3.68,14.14-7.04,26.07-9.63,33.68-1.83,5.36-6.82,9-12.48,9.13Z"/>
      <path class="cls-4" d="M80.48,127.33c.29-7.28,27.16-13.09,34.51-13.09h226.41c7.35,0,34.23,5.81,34.51,13.09.47.37.88.75,1.25,1.15,6.36.52,8.08,10.56,7.22,25.44-.05.8-.13,1.6-.26,2.4-.13.94-.5,3.16-1.02,6.3-.38,2.28-.81,4.85-1.24,7.65-.11.7-.22,1.4-.35,2.11-.62,3.39-1.45,6.87-2.87,10.26-2.11,5.07-5.32,9.28-8.47,13.43-1.57,2.07-3.17,4.11-4.71,6.21-2.38,2.64-4.22,5.45-5.36,8.51-5.7,15.33,3.01,32.37,4.09,48.25.31,4.61-1.02,9.24-1.95,14.07-.81,4.22-1.19,7.41-1.49,9.08-.87,5.27-2.03,12.99-3.38,22.11-.56,3.85-1.14,7.86-1.74,11.99-1.71,7.55-3.31,15.13-4.99,22.75-.5,2.25-1.06,4.5-1.62,6.75-2.79,11.23-5.8,22.48-7.8,33.81-.64,3.62-1.3,7.19-1.88,10.71-1.35,8.16-2.45,15.93-3.07,23.09-.75,3.71-1.56,7.01-2.31,9.82-1.45,5.5-6.18,9.45-11.76,9.97-.42.07-2.12.13-2.55.12h-182.91c-.43.01-2.13-.05-2.54-.12-5.59-.52-10.33-4.47-11.78-9.98-1.4-5.4-3.09-12.56-4.95-20.83-.63-2.83-1.22-5.81-1.96-8.86s-1.62-6.26-2.4-9.45c-.72-2.15-1.34-4.36-1.87-6.59-.89-2.79-1.41-5.61-1.64-8.4-.23-2.76-.21-5.5.06-8.17,2.12-20.68,6.13-42.67-6.21-61.22-1.08-2.25-2.16-4.48-3.21-6.74-1.76-3.77-3.47-7.55-4.67-11.53-.93-3.07-1.56-6.24-1.95-9.53-.52-4.34-1.22-8.86-1.83-13.56-1.15-8.87-2.94-17.98-4.73-27-.48-2.41-1.02-4.82-1.56-7.24-1.36-6.03-3.02-12.06-4.55-18.14-.68-2.72-1.34-5.44-1.89-8.19-.4-2.02-.66-4.05-.99-6.05-2.81-17.07-5.37-32.27-6.02-36.96-.13-.77-.21-1.54-.25-2.31-.75-14.04,1.03-23.41,7.28-23.98.41-.41.87-.8,1.39-1.16Z"/>
      <path class="cls-4" d="M166.36,431.11l185.45,4.36c6.62.16,12.38-4.5,13.61-11,.54-2.83,1.1-6.05,1.46-9.6-3.07-33.49,5.93-63.49,16.18-93.27.69-4.1,1.32-7.95,1.89-11.49,1.69-10.59,2.86-18.36,3.18-21.19,0,0,.41-2.99.97-8.15,3.72-20.38-8.28-37.38-5.28-57.38,3-14,17-23,18.63-38.11.34-2.4.67-4.75.99-7.02,2.84-20.51,4.93-35.63,4.93-35.63.1-.73.16-1.46.13-2.2-.58-14.56-12.56-26.18-27.27-26.18H113.04c-14.63,0-20.56,9.05-20.9,23.36-.02.88.06,1.75.22,2.61,0,0,3.51,19.3,7.6,41.82l1.24,6.84c.97,3.04,1.89,6.09,2.79,9.14,9.45,24.3,14.55,49,17.36,74.2.35,3.15.68,6.31,1.01,9.48,4.45,26.69,13.45,52.69,15.45,80.69,0,7,1,15,4.7,22.06.99,3.03,2.02,6.05,3.1,9.06.79,2.97,1.55,5.81,2.3,8.52,2.23,8.12,4.26,14.97,5.97,19.96,1.83,5.36,6.82,9,12.48,9.13Z"/>
    </g>
    <path class="cls-3" d="M456.39,101.02c10.26,5.52,15.67,10.35,15.32,15.51-.09.94-.48,1.89-1.13,2.86-1.3,1.93-3.69,3.91-6.86,5.96-2.09,1.21-4.79,2.47-8.09,3.76-4.88,1.92-11.07,3.94-18.43,6.05-3.68,1.06-7.66,2.13-11.89,3.22-36.48,9.67-89.94,24.14-145.98,24.56-6.96.19-13.53.05-19.78-.24-6.26-.29-12.24-.74-18.09-1.12-3.9-.27-7.74-.52-11.57-.78-44.12-7.54-99.61,12.84-153.67,18.7-6.05-.31-14.87,1.84-17.03.23-3.43-.14-6.72-.33-9.93-.54-3.27-1.08-6.47-2.19-9.55-3.36-3.1-1.16-6.09-2.37-8.99-3.61-18.15-3.76-33.22-9.62-30.39-20.86,2.05-11.25,22.55-27.43,56.84-52.93,3.6-2.69,7.21-5.36,10.79-7.98,10.77-7.86,21.24-15.27,30.98-21.2,21.74-13.18,38.58-19.11,56.44-38.39,2.37-2.39,4.62-4.73,6.75-6.95,6.4-6.64,11.68-12.13,16.64-14.15,2.04-1.03,4.04-1.94,5.99-2.76,9.76-4.1,18.48-6.05,26.81-6.97,1.68-.04,3.35-.06,5.02-.06,8.37-.02,16.67.41,24.85,1.29,1.23.47,2.48.98,3.73,1.51,19.83,8.32,42.42,25.24,72.44,44.35,3,1.89,6.06,3.8,9.17,5.71,21.38,14.98,48.49,27.84,81.31,35.88,8.76,2.11,20.7,4.83,32.85,7.72,6.01,1.57,11.22,3.07,15.42,4.56Z"/>
    <path class="cls-1" d="M250.82,356.86h-40s0-2.15,0-5.97c0-1.91,0-4.23,0-6.9s0-5.7-.02-9.03c-3.98-23.58,1.02-46.58,6.73-69.75.49-2.93.92-5.87,1.28-8.83.36-2.96.64-5.93.82-8.92-.1-3.2-.32-6.38-.64-9.56-1.28-12.73-4.16-25.4-8.16-37.99,0-4.48,0-7.05,0-7.05h40v7.05c0,2.24,0,4.97,0,8.09,0,7.1.06,14.11.1,21.06.02,3.48.03,6.94,0,10.4-.41,3.39-.84,6.79-1.27,10.18-.44,3.39-.91,6.79-1.48,10.17-10.35,30.58-4.35,61.58,2.62,93,.03,2.62.03,4.06.03,4.06Z"/>
    <path class="cls-1" d="M338.32,356.86h-40v-25.62c-.56-3.61-1.01-7.22-1.36-10.83-1.14-14.03-1.14-29.03-.79-43.45.46-3.45.94-6.88,1.41-10.32s.95-6.86,1.41-10.28c2.71-20.54,4.59-40.98.84-61.98,13,0,32-5,36,1,10,19,3,46-1.7,70.12-.24,3.13-.43,6.27-.57,9.42-.83,18.88.22,37.8,4.66,56.3.1,3.85.11,7.38.11,10.5v15.13Z"/>
    <path class="cls-1" d="M155.68,356.62c-11.86.75-23.86.75-35.86.75,8-26-5-53,2.43-79.54.65-3.12,1.2-6.25,1.65-9.4,3.57-25.18.53-51.26-5.07-76.06,10,0,19,0,29.13.48h10.37s0,2.56,0,7.05c.28,3.43.53,6.85.75,10.27s.4,6.83.56,10.23c.19,19.97,1.19,40.97-.63,60.81-.2,2.98-.43,5.96-.68,8.94-2.5,19.23-1.5,39.23-2.74,58.28,0,5.18.09,8.19.09,8.19Z"/>
  </g>
</svg>